<?xml version="1.0" encoding="utf-8" standalone="no"?>
<!DOCTYPE svg PUBLIC "-//W3C//DTD SVG 1.1//EN"
  "http://www.w3.org/Graphics/SVG/1.1/DTD/svg11.dtd">
<!-- Created with matplotlib (http://matplotlib.org/) -->
<svg height="187pt" version="1.1" viewBox="0 0 183 187" width="183pt" xmlns="http://www.w3.org/2000/svg" xmlns:xlink="http://www.w3.org/1999/xlink">
 <defs>
  <style type="text/css">
*{stroke-linecap:butt;stroke-linejoin:round;stroke-miterlimit:100000;}
  </style>
 </defs>
 <g id="figure_1">
  <g id="patch_1">
   <path d="M 0 187.2 
L 183.6 187.2 
L 183.6 0 
L 0 0 
z
" style="fill:#800080;"/>
  </g>
  <g id="axes_1">
   <g id="line2d_1">
    <path clip-path="url(#pa4f3ab8623)" d="M 36 93.6 
L 37.675676 91.074353 
L 38.569369 90.109919 
L 39.23964 89.678113 
L 39.798198 89.54911 
L 40.356757 89.653336 
L 40.915315 90.005963 
L 41.473874 90.615209 
L 42.144144 91.685808 
L 42.926126 93.385359 
L 43.81982 95.862424 
L 45.048649 99.991197 
L 48.735135 112.964089 
L 49.628829 115.065741 
L 50.299099 116.110851 
L 50.857658 116.577255 
L 51.304505 116.66139 
L 51.751351 116.473806 
L 52.198198 116.004279 
L 52.756757 115.011019 
L 53.427027 113.217817 
L 54.209009 110.310623 
L 55.102703 105.976614 
L 56.21982 99.242538 
L 57.672072 88.916459 
L 61.023423 64.551018 
L 62.028829 58.961021 
L 62.810811 55.660056 
L 63.481081 53.694094 
L 64.03964 52.727172 
L 64.486486 52.419422 
L 64.821622 52.469354 
L 65.156757 52.764324 
L 65.603604 53.542522 
L 66.162162 55.134488 
L 66.832432 57.939422 
L 67.614414 62.392876 
L 68.508108 68.906218 
L 69.625225 78.838809 
L 71.189189 94.991631 
L 74.093694 125.384696 
L 75.210811 134.81162 
L 76.104505 140.678748 
L 76.774775 143.907933 
L 77.333333 145.753129 
L 77.78018 146.645111 
L 78.115315 146.963099 
L 78.45045 146.975432 
L 78.785586 146.679801 
L 79.120721 146.07578 
L 79.567568 144.793521 
L 80.126126 142.43759 
L 80.796396 138.547527 
L 81.578378 132.645975 
L 82.583784 123.173699 
L 83.924324 108.03441 
L 88.504505 53.83508 
L 89.50991 45.502814 
L 90.291892 40.691228 
L 90.962162 37.865491 
L 91.520721 36.480241 
L 91.855856 36.083537 
L 92.190991 36.015963 
L 92.526126 36.277882 
L 92.861261 36.867662 
L 93.308108 38.157489 
L 93.866667 40.558113 
L 94.536937 44.539594 
L 95.318919 50.577234 
L 96.324324 60.230121 
L 97.664865 75.543964 
L 101.90991 126.071211 
L 102.915315 134.887248 
L 103.809009 140.833212 
L 104.479279 143.982046 
L 105.037838 145.697037 
L 105.484685 146.459558 
L 105.81982 146.673574 
L 106.154955 146.581787 
L 106.49009 146.18707 
L 106.936937 145.197964 
L 107.495495 143.241408 
L 108.165766 139.896194 
L 108.947748 134.74495 
L 109.953153 126.451917 
L 111.293694 113.286965 
L 115.315315 72.238547 
L 116.432432 63.725995 
L 117.326126 58.564095 
L 117.996396 55.766193 
L 118.554955 54.171392 
L 119.001802 53.38511 
L 119.448649 53.033137 
L 119.783784 53.050724 
L 120.118919 53.305001 
L 120.565766 54.002031 
L 121.124324 55.423242 
L 121.794595 57.876858 
L 122.576577 61.653122 
L 123.581982 67.684674 
L 125.034234 77.929752 
L 128.05045 99.605252 
L 129.167568 106.066804 
L 130.172973 110.616583 
L 130.954955 113.210851 
L 131.625225 114.743062 
L 132.183784 115.529775 
L 132.630631 115.844225 
L 133.077477 115.887896 
L 133.524324 115.672806 
L 133.971171 115.21407 
L 134.52973 114.325575 
L 135.2 112.851316 
L 136.093694 110.324767 
L 137.434234 105.758509 
L 140.115315 96.467149 
L 141.232432 93.479591 
L 142.126126 91.723152 
L 142.796396 90.819353 
L 143.466667 90.280171 
L 144.025225 90.104462 
L 144.583784 90.164908 
L 145.142342 90.442689 
L 145.812613 91.027451 
L 146.706306 92.14465 
L 147.6 93.50907 
L 147.6 93.50907 
" style="fill:none;stroke:#ffffff;stroke-linecap:square;stroke-width:4.0;"/>
   </g>
  </g>
 </g>
 <defs>
  <clipPath id="pa4f3ab8623">
   <rect height="115.2" width="111.6" x="36.0" y="36.0"/>
  </clipPath>
 </defs>
</svg>
