<?xml version="1.0" encoding="utf-8" standalone="no"?>
<!DOCTYPE svg PUBLIC "-//W3C//DTD SVG 1.1//EN"
  "http://www.w3.org/Graphics/SVG/1.1/DTD/svg11.dtd">
<!-- Created with matplotlib (http://matplotlib.org/) -->
<svg height="432pt" version="1.1" viewBox="0 0 423 432" width="423pt" xmlns="http://www.w3.org/2000/svg" xmlns:xlink="http://www.w3.org/1999/xlink">
 <defs>
  <style type="text/css">
*{stroke-linecap:butt;stroke-linejoin:round;stroke-miterlimit:100000;}
  </style>
 </defs>
 <g id="figure_1">
  <g id="patch_1">
   <path d="M 0 432 
L 423 432 
L 423 0 
L 0 0 
z
" style="fill:#800080;"/>
  </g>
  <g id="axes_1">
   <g id="line2d_1">
    <path clip-path="url(#p5134f6376a)" d="M 72 216 
L 75.072072 211.209663 
L 76.747748 208.994775 
L 78.144144 207.520634 
L 79.261261 206.646798 
L 80.378378 206.086509 
L 81.216216 205.892138 
L 82.054054 205.904532 
L 82.891892 206.13334 
L 83.72973 206.586044 
L 84.567568 207.267867 
L 85.684685 208.538023 
L 86.801802 210.220598 
L 87.918919 212.308162 
L 89.315315 215.463398 
L 90.711712 219.181195 
L 92.387387 224.294087 
L 94.342342 230.97517 
L 97.414414 242.3744 
L 101.045045 255.682612 
L 103 262.00486 
L 104.396396 265.891734 
L 105.792793 269.111046 
L 106.90991 271.1272 
L 107.747748 272.277127 
L 108.585586 273.09348 
L 109.423423 273.557693 
L 109.981982 273.663392 
L 110.540541 273.601063 
L 111.099099 273.366983 
L 111.936937 272.686973 
L 112.774775 271.604945 
L 113.612613 270.115254 
L 114.45045 268.215213 
L 115.567568 265.044542 
L 116.684685 261.154698 
L 118.081081 255.311299 
L 119.477477 248.434144 
L 121.153153 238.935042 
L 123.108108 226.373173 
L 125.342342 210.521977 
L 129.531532 178.786279 
L 132.603604 156.276887 
L 134.558559 143.377546 
L 136.234234 133.679071 
L 137.630631 126.78798 
L 138.747748 122.170413 
L 139.864865 118.428285 
L 140.702703 116.235234 
L 141.540541 114.594598 
L 142.378378 113.526733 
L 142.936937 113.141529 
L 143.495495 113.022613 
L 144.054054 113.173386 
L 144.612613 113.596502 
L 145.171171 114.293852 
L 146.009009 115.856306 
L 146.846847 118.038594 
L 147.684685 120.837171 
L 148.801802 125.513579 
L 149.918919 131.242508 
L 151.315315 139.818965 
L 152.711712 149.865273 
L 154.387387 163.665979 
L 156.342342 181.804413 
L 158.855856 207.506598 
L 167.234234 295.461739 
L 169.189189 312.507334 
L 170.864865 325.016101 
L 172.261261 333.696869 
L 173.378378 339.37716 
L 174.495495 343.85322 
L 175.333333 346.382823 
L 176.171171 348.179649 
L 176.72973 348.962124 
L 177.288288 349.407748 
L 177.846847 349.513659 
L 178.405405 349.277916 
L 178.963964 348.699502 
L 179.522523 347.778336 
L 180.36036 345.756054 
L 181.198198 342.971571 
L 182.036036 339.436469 
L 183.153153 333.584151 
L 184.27027 326.478108 
L 185.666667 315.933336 
L 187.063063 303.689637 
L 188.738739 287.020199 
L 190.693694 265.325637 
L 193.486486 231.438107 
L 200.189189 148.670175 
L 202.144144 127.520603 
L 203.81982 111.484294 
L 205.216216 99.893571 
L 206.612613 90.122966 
L 207.72973 83.728071 
L 208.846847 78.672092 
L 209.684685 75.791961 
L 210.522523 73.713159 
L 211.081081 72.778853 
L 211.63964 72.208843 
L 212.198198 72.004634 
L 212.756757 72.166746 
L 213.315315 72.694706 
L 213.873874 73.587057 
L 214.432432 74.841358 
L 215.27027 77.393724 
L 216.108108 80.73696 
L 217.225225 86.388939 
L 218.342342 93.348985 
L 219.738739 103.772745 
L 221.135135 115.946504 
L 222.810811 132.575302 
L 224.765766 154.249561 
L 227.558559 188.099574 
L 233.981982 267.378867 
L 236.216216 291.614864 
L 237.891892 307.610032 
L 239.288288 319.21812 
L 240.684685 329.072966 
L 241.801802 335.596612 
L 242.918919 340.846967 
L 243.756757 343.922053 
L 244.594595 346.242593 
L 245.432432 347.800085 
L 245.990991 348.412439 
L 246.54955 348.683936 
L 247.108108 348.615554 
L 247.666667 348.209195 
L 248.225225 347.467675 
L 248.783784 346.394712 
L 249.621622 344.174124 
L 250.459459 341.237551 
L 251.576577 336.249485 
L 252.693694 330.097473 
L 254.09009 320.891705 
L 255.486486 310.168806 
L 257.162162 295.583166 
L 259.396396 273.856767 
L 262.468468 241.426757 
L 267.216216 191.252701 
L 269.45045 169.941166 
L 271.405405 153.456695 
L 273.081081 141.314988 
L 274.477477 132.785063 
L 275.594595 127.080127 
L 276.711712 122.415456 
L 277.828829 118.819848 
L 278.666667 116.834899 
L 279.504505 115.462776 
L 280.063063 114.887745 
L 280.621622 114.582842 
L 281.18018 114.545798 
L 281.738739 114.7736 
L 282.297297 115.262502 
L 282.855856 116.008045 
L 283.693694 117.596106 
L 284.531532 119.729659 
L 285.648649 123.382026 
L 286.765766 127.898431 
L 288.162162 134.648074 
L 289.837838 144.156909 
L 291.792793 156.811618 
L 294.306306 174.757989 
L 301.009009 223.700507 
L 302.963964 236.202878 
L 304.63964 245.706891 
L 306.315315 253.891047 
L 307.711712 259.59856 
L 308.828829 263.393547 
L 309.945946 266.482745 
L 311.063063 268.857656 
L 311.900901 270.170409 
L 312.738739 271.085766 
L 313.576577 271.610561 
L 314.135135 271.748081 
L 314.693694 271.71974 
L 315.252252 271.529553 
L 316.09009 270.950774 
L 316.927928 270.035175 
L 317.765766 268.802031 
L 318.882883 266.70086 
L 320 264.12829 
L 321.396396 260.341166 
L 323.072072 255.124088 
L 325.306306 247.399543 
L 331.171171 226.663929 
L 333.126126 220.721232 
L 334.801802 216.352741 
L 336.198198 213.312511 
L 337.315315 211.307881 
L 338.432432 209.700441 
L 339.54955 208.497921 
L 340.387387 207.862108 
L 341.225225 207.451541 
L 342.063063 207.261155 
L 342.900901 207.283629 
L 343.738739 207.509477 
L 344.576577 207.927148 
L 345.693694 208.758873 
L 346.810811 209.870601 
L 348.207207 211.589863 
L 349.882883 214.015318 
L 351 215.772676 
L 351 215.772676 
" style="fill:none;stroke:#ffffff;stroke-linecap:square;stroke-width:10.0;"/>
   </g>
  </g>
 </g>
 <defs>
  <clipPath id="p5134f6376a">
   <rect height="288.0" width="279.0" x="72.0" y="72.0"/>
  </clipPath>
 </defs>
</svg>
