<?xml version="1.0" encoding="utf-8" standalone="no"?>
<!DOCTYPE svg PUBLIC "-//W3C//DTD SVG 1.1//EN"
  "http://www.w3.org/Graphics/SVG/1.1/DTD/svg11.dtd">
<!-- Created with matplotlib (http://matplotlib.org/) -->
<svg height="93pt" version="1.1" viewBox="0 0 91 93" width="91pt" xmlns="http://www.w3.org/2000/svg" xmlns:xlink="http://www.w3.org/1999/xlink">
 <defs>
  <style type="text/css">
*{stroke-linecap:butt;stroke-linejoin:round;stroke-miterlimit:100000;}
  </style>
 </defs>
 <g id="figure_1">
  <g id="patch_1">
   <path d="M 0 93.6 
L 91.8 93.6 
L 91.8 0 
L 0 0 
z
" style="fill:#800080;"/>
  </g>
  <g id="axes_1">
   <g id="line2d_1">
    <path clip-path="url(#pe6f5894727)" d="M 18 46.8 
L 19.061261 45.271764 
L 19.61982 44.839056 
L 20.010811 44.780906 
L 20.401802 44.957534 
L 20.792793 45.384032 
L 21.295495 46.299878 
L 21.90991 47.931212 
L 22.803604 51.023284 
L 24.367568 56.482044 
L 24.981982 57.82544 
L 25.372973 58.257639 
L 25.708108 58.320213 
L 25.987387 58.137395 
L 26.322523 57.623051 
L 26.769369 56.427784 
L 27.327928 54.136075 
L 27.998198 50.345719 
L 29.003604 43.192407 
L 30.679279 31.269955 
L 31.34955 28.034083 
L 31.852252 26.615754 
L 32.187387 26.228306 
L 32.410811 26.234677 
L 32.634234 26.45877 
L 32.969369 27.207719 
L 33.36036 28.702716 
L 33.863063 31.563793 
L 34.533333 36.826623 
L 35.482883 46.292907 
L 37.381982 65.644421 
L 38.052252 70.339374 
L 38.554955 72.555329 
L 38.945946 73.392425 
L 39.169369 73.502732 
L 39.392793 73.3399 
L 39.672072 72.751211 
L 40.063063 71.218795 
L 40.565766 68.094965 
L 41.18018 62.72093 
L 42.073874 52.658186 
L 44.308108 26.400855 
L 44.978378 21.280447 
L 45.481081 18.932745 
L 45.816216 18.155771 
L 46.03964 18.000927 
L 46.263063 18.138941 
L 46.542342 18.720642 
L 46.877477 20.004747 
L 47.324324 22.656974 
L 47.938739 27.852221 
L 48.776577 37.0957 
L 51.234234 65.612785 
L 51.904505 70.416606 
L 52.407207 72.555984 
L 52.742342 73.229779 
L 52.965766 73.338426 
L 53.189189 73.176024 
L 53.468468 72.598982 
L 53.859459 71.121688 
L 54.362162 68.172055 
L 55.032432 62.716633 
L 56.093694 51.885351 
L 57.657658 36.119273 
L 58.383784 30.80304 
L 58.942342 28.083091 
L 59.389189 26.861888 
L 59.724324 26.516568 
L 59.947748 26.55472 
L 60.227027 26.895095 
L 60.562162 27.711621 
L 61.009009 29.430847 
L 61.623423 32.774399 
L 62.572973 39.379899 
L 64.304505 51.501361 
L 65.030631 55.088344 
L 65.589189 56.896549 
L 66.036036 57.703881 
L 66.371171 57.940057 
L 66.65045 57.905911 
L 66.985586 57.607035 
L 67.432432 56.819929 
L 68.046847 55.162383 
L 69.108108 51.459373 
L 70.281081 47.588525 
L 70.951351 46.052266 
L 71.454054 45.352091 
L 71.900901 45.072786 
L 72.291892 45.082454 
L 72.738739 45.351775 
L 73.297297 45.994099 
L 73.8 46.754535 
L 73.8 46.754535 
" style="fill:none;stroke:#ffffff;stroke-linecap:square;stroke-width:2.0;"/>
   </g>
  </g>
 </g>
 <defs>
  <clipPath id="pe6f5894727">
   <rect height="57.6" width="55.8" x="18.0" y="18.0"/>
  </clipPath>
 </defs>
</svg>
